<mxfile host="app.diagrams.net" modified="2024-06-05T20:37:12.744Z" agent="Mozilla/5.0 (Windows NT 10.0; Win64; x64) AppleWebKit/537.36 (KHTML, like Gecko) Chrome/122.0.0.0 YaBrowser/24.4.0.0 Safari/537.36" etag="0uN99prnvEPS5N1vevTm" version="24.4.14" type="device">
  <diagram id="s-OSiqa2uqu7PaNJ7Vr6" name="Страница — 6">
    <mxGraphModel dx="1034" dy="479" grid="1" gridSize="10" guides="1" tooltips="1" connect="1" arrows="1" fold="1" page="1" pageScale="1" pageWidth="827" pageHeight="1169" math="0" shadow="0">
      <root>
        <mxCell id="0" />
        <mxCell id="1" parent="0" />
        <mxCell id="Y71OiTSrw5KZEtVsrdHp-1" value="Ученик" style="swimlane;fontStyle=0;childLayout=stackLayout;horizontal=1;startSize=30;horizontalStack=0;resizeParent=1;resizeParentMax=0;resizeLast=0;collapsible=1;marginBottom=0;whiteSpace=wrap;html=1;" parent="1" vertex="1">
          <mxGeometry x="390" y="280" width="140" height="240" as="geometry" />
        </mxCell>
        <mxCell id="Y71OiTSrw5KZEtVsrdHp-2" value="Код_Ученик" style="text;strokeColor=none;fillColor=none;align=left;verticalAlign=middle;spacingLeft=4;spacingRight=4;overflow=hidden;points=[[0,0.5],[1,0.5]];portConstraint=eastwest;rotatable=0;whiteSpace=wrap;html=1;" parent="Y71OiTSrw5KZEtVsrdHp-1" vertex="1">
          <mxGeometry y="30" width="140" height="30" as="geometry" />
        </mxCell>
        <mxCell id="Y71OiTSrw5KZEtVsrdHp-3" value="ФИО" style="text;strokeColor=none;fillColor=none;align=left;verticalAlign=middle;spacingLeft=4;spacingRight=4;overflow=hidden;points=[[0,0.5],[1,0.5]];portConstraint=eastwest;rotatable=0;whiteSpace=wrap;html=1;" parent="Y71OiTSrw5KZEtVsrdHp-1" vertex="1">
          <mxGeometry y="60" width="140" height="30" as="geometry" />
        </mxCell>
        <mxCell id="Y71OiTSrw5KZEtVsrdHp-4" value="Телефон" style="text;strokeColor=none;fillColor=none;align=left;verticalAlign=middle;spacingLeft=4;spacingRight=4;overflow=hidden;points=[[0,0.5],[1,0.5]];portConstraint=eastwest;rotatable=0;whiteSpace=wrap;html=1;" parent="Y71OiTSrw5KZEtVsrdHp-1" vertex="1">
          <mxGeometry y="90" width="140" height="30" as="geometry" />
        </mxCell>
        <mxCell id="Y71OiTSrw5KZEtVsrdHp-5" value="Почта" style="text;strokeColor=none;fillColor=none;align=left;verticalAlign=middle;spacingLeft=4;spacingRight=4;overflow=hidden;points=[[0,0.5],[1,0.5]];portConstraint=eastwest;rotatable=0;whiteSpace=wrap;html=1;" parent="Y71OiTSrw5KZEtVsrdHp-1" vertex="1">
          <mxGeometry y="120" width="140" height="30" as="geometry" />
        </mxCell>
        <mxCell id="Y71OiTSrw5KZEtVsrdHp-6" value="Средний_Балл" style="text;strokeColor=none;fillColor=none;align=left;verticalAlign=middle;spacingLeft=4;spacingRight=4;overflow=hidden;points=[[0,0.5],[1,0.5]];portConstraint=eastwest;rotatable=0;whiteSpace=wrap;html=1;" parent="Y71OiTSrw5KZEtVsrdHp-1" vertex="1">
          <mxGeometry y="150" width="140" height="30" as="geometry" />
        </mxCell>
        <mxCell id="Y71OiTSrw5KZEtVsrdHp-7" value="Класс_Код" style="text;strokeColor=none;fillColor=none;align=left;verticalAlign=middle;spacingLeft=4;spacingRight=4;overflow=hidden;points=[[0,0.5],[1,0.5]];portConstraint=eastwest;rotatable=0;whiteSpace=wrap;html=1;" parent="Y71OiTSrw5KZEtVsrdHp-1" vertex="1">
          <mxGeometry y="180" width="140" height="30" as="geometry" />
        </mxCell>
        <mxCell id="Y71OiTSrw5KZEtVsrdHp-8" value="Родитель_Код" style="text;strokeColor=none;fillColor=none;align=left;verticalAlign=middle;spacingLeft=4;spacingRight=4;overflow=hidden;points=[[0,0.5],[1,0.5]];portConstraint=eastwest;rotatable=0;whiteSpace=wrap;html=1;" parent="Y71OiTSrw5KZEtVsrdHp-1" vertex="1">
          <mxGeometry y="210" width="140" height="30" as="geometry" />
        </mxCell>
        <mxCell id="Y71OiTSrw5KZEtVsrdHp-9" value="Класс" style="swimlane;fontStyle=0;childLayout=stackLayout;horizontal=1;startSize=30;horizontalStack=0;resizeParent=1;resizeParentMax=0;resizeLast=0;collapsible=1;marginBottom=0;whiteSpace=wrap;html=1;" parent="1" vertex="1">
          <mxGeometry x="390" y="100" width="140" height="120" as="geometry" />
        </mxCell>
        <mxCell id="Y71OiTSrw5KZEtVsrdHp-10" value="Код_Класс" style="text;strokeColor=none;fillColor=none;align=left;verticalAlign=middle;spacingLeft=4;spacingRight=4;overflow=hidden;points=[[0,0.5],[1,0.5]];portConstraint=eastwest;rotatable=0;whiteSpace=wrap;html=1;" parent="Y71OiTSrw5KZEtVsrdHp-9" vertex="1">
          <mxGeometry y="30" width="140" height="30" as="geometry" />
        </mxCell>
        <mxCell id="Y71OiTSrw5KZEtVsrdHp-11" value="Название" style="text;strokeColor=none;fillColor=none;align=left;verticalAlign=middle;spacingLeft=4;spacingRight=4;overflow=hidden;points=[[0,0.5],[1,0.5]];portConstraint=eastwest;rotatable=0;whiteSpace=wrap;html=1;" parent="Y71OiTSrw5KZEtVsrdHp-9" vertex="1">
          <mxGeometry y="60" width="140" height="30" as="geometry" />
        </mxCell>
        <mxCell id="Y71OiTSrw5KZEtVsrdHp-12" value="Учебный_План_Код" style="text;strokeColor=none;fillColor=none;align=left;verticalAlign=middle;spacingLeft=4;spacingRight=4;overflow=hidden;points=[[0,0.5],[1,0.5]];portConstraint=eastwest;rotatable=0;whiteSpace=wrap;html=1;" parent="Y71OiTSrw5KZEtVsrdHp-9" vertex="1">
          <mxGeometry y="90" width="140" height="30" as="geometry" />
        </mxCell>
        <mxCell id="Y71OiTSrw5KZEtVsrdHp-13" value="Учебный_План" style="swimlane;fontStyle=0;childLayout=stackLayout;horizontal=1;startSize=30;horizontalStack=0;resizeParent=1;resizeParentMax=0;resizeLast=0;collapsible=1;marginBottom=0;whiteSpace=wrap;html=1;" parent="1" vertex="1">
          <mxGeometry x="600" y="100" width="140" height="120" as="geometry" />
        </mxCell>
        <mxCell id="Y71OiTSrw5KZEtVsrdHp-14" value="Код_Учебный_План" style="text;strokeColor=none;fillColor=none;align=left;verticalAlign=middle;spacingLeft=4;spacingRight=4;overflow=hidden;points=[[0,0.5],[1,0.5]];portConstraint=eastwest;rotatable=0;whiteSpace=wrap;html=1;" parent="Y71OiTSrw5KZEtVsrdHp-13" vertex="1">
          <mxGeometry y="30" width="140" height="30" as="geometry" />
        </mxCell>
        <mxCell id="Y71OiTSrw5KZEtVsrdHp-15" value="Четверть" style="text;strokeColor=none;fillColor=none;align=left;verticalAlign=middle;spacingLeft=4;spacingRight=4;overflow=hidden;points=[[0,0.5],[1,0.5]];portConstraint=eastwest;rotatable=0;whiteSpace=wrap;html=1;" parent="Y71OiTSrw5KZEtVsrdHp-13" vertex="1">
          <mxGeometry y="60" width="140" height="30" as="geometry" />
        </mxCell>
        <mxCell id="Y71OiTSrw5KZEtVsrdHp-16" value="Предмет_Код" style="text;strokeColor=none;fillColor=none;align=left;verticalAlign=middle;spacingLeft=4;spacingRight=4;overflow=hidden;points=[[0,0.5],[1,0.5]];portConstraint=eastwest;rotatable=0;whiteSpace=wrap;html=1;" parent="Y71OiTSrw5KZEtVsrdHp-13" vertex="1">
          <mxGeometry y="90" width="140" height="30" as="geometry" />
        </mxCell>
        <mxCell id="Y71OiTSrw5KZEtVsrdHp-17" value="" style="endArrow=none;html=1;rounded=0;endFill=0;startArrow=oval;startFill=1;" parent="1" source="Y71OiTSrw5KZEtVsrdHp-1" target="Y71OiTSrw5KZEtVsrdHp-9" edge="1">
          <mxGeometry width="50" height="50" relative="1" as="geometry">
            <mxPoint x="410" y="400" as="sourcePoint" />
            <mxPoint x="410" y="450" as="targetPoint" />
          </mxGeometry>
        </mxCell>
        <mxCell id="Y71OiTSrw5KZEtVsrdHp-18" value="Оценки" style="swimlane;fontStyle=0;childLayout=stackLayout;horizontal=1;startSize=30;horizontalStack=0;resizeParent=1;resizeParentMax=0;resizeLast=0;collapsible=1;marginBottom=0;whiteSpace=wrap;html=1;" parent="1" vertex="1">
          <mxGeometry x="600" y="340" width="140" height="180" as="geometry" />
        </mxCell>
        <mxCell id="Y71OiTSrw5KZEtVsrdHp-19" value="Код_Оценки" style="text;strokeColor=none;fillColor=none;align=left;verticalAlign=middle;spacingLeft=4;spacingRight=4;overflow=hidden;points=[[0,0.5],[1,0.5]];portConstraint=eastwest;rotatable=0;whiteSpace=wrap;html=1;" parent="Y71OiTSrw5KZEtVsrdHp-18" vertex="1">
          <mxGeometry y="30" width="140" height="30" as="geometry" />
        </mxCell>
        <mxCell id="Y71OiTSrw5KZEtVsrdHp-20" value="Оценка" style="text;strokeColor=none;fillColor=none;align=left;verticalAlign=middle;spacingLeft=4;spacingRight=4;overflow=hidden;points=[[0,0.5],[1,0.5]];portConstraint=eastwest;rotatable=0;whiteSpace=wrap;html=1;" parent="Y71OiTSrw5KZEtVsrdHp-18" vertex="1">
          <mxGeometry y="60" width="140" height="30" as="geometry" />
        </mxCell>
        <mxCell id="Y71OiTSrw5KZEtVsrdHp-21" value="Ученик_Код" style="text;strokeColor=none;fillColor=none;align=left;verticalAlign=middle;spacingLeft=4;spacingRight=4;overflow=hidden;points=[[0,0.5],[1,0.5]];portConstraint=eastwest;rotatable=0;whiteSpace=wrap;html=1;" parent="Y71OiTSrw5KZEtVsrdHp-18" vertex="1">
          <mxGeometry y="90" width="140" height="30" as="geometry" />
        </mxCell>
        <mxCell id="Y71OiTSrw5KZEtVsrdHp-22" value="Предмет_Код" style="text;strokeColor=none;fillColor=none;align=left;verticalAlign=middle;spacingLeft=4;spacingRight=4;overflow=hidden;points=[[0,0.5],[1,0.5]];portConstraint=eastwest;rotatable=0;whiteSpace=wrap;html=1;" parent="Y71OiTSrw5KZEtVsrdHp-18" vertex="1">
          <mxGeometry y="120" width="140" height="30" as="geometry" />
        </mxCell>
        <mxCell id="Y71OiTSrw5KZEtVsrdHp-23" value="Урок_Код" style="text;strokeColor=none;fillColor=none;align=left;verticalAlign=middle;spacingLeft=4;spacingRight=4;overflow=hidden;points=[[0,0.5],[1,0.5]];portConstraint=eastwest;rotatable=0;whiteSpace=wrap;html=1;" parent="Y71OiTSrw5KZEtVsrdHp-18" vertex="1">
          <mxGeometry y="150" width="140" height="30" as="geometry" />
        </mxCell>
        <mxCell id="Y71OiTSrw5KZEtVsrdHp-24" value="Предмет" style="swimlane;fontStyle=0;childLayout=stackLayout;horizontal=1;startSize=30;horizontalStack=0;resizeParent=1;resizeParentMax=0;resizeLast=0;collapsible=1;marginBottom=0;whiteSpace=wrap;html=1;" parent="1" vertex="1">
          <mxGeometry x="827" y="340" width="140" height="180" as="geometry" />
        </mxCell>
        <mxCell id="Y71OiTSrw5KZEtVsrdHp-25" value="Код_Предмет" style="text;strokeColor=none;fillColor=none;align=left;verticalAlign=middle;spacingLeft=4;spacingRight=4;overflow=hidden;points=[[0,0.5],[1,0.5]];portConstraint=eastwest;rotatable=0;whiteSpace=wrap;html=1;" parent="Y71OiTSrw5KZEtVsrdHp-24" vertex="1">
          <mxGeometry y="30" width="140" height="30" as="geometry" />
        </mxCell>
        <mxCell id="Y71OiTSrw5KZEtVsrdHp-26" value="Название" style="text;strokeColor=none;fillColor=none;align=left;verticalAlign=middle;spacingLeft=4;spacingRight=4;overflow=hidden;points=[[0,0.5],[1,0.5]];portConstraint=eastwest;rotatable=0;whiteSpace=wrap;html=1;" parent="Y71OiTSrw5KZEtVsrdHp-24" vertex="1">
          <mxGeometry y="60" width="140" height="30" as="geometry" />
        </mxCell>
        <mxCell id="Y71OiTSrw5KZEtVsrdHp-27" value="Количество уроков" style="text;strokeColor=none;fillColor=none;align=left;verticalAlign=middle;spacingLeft=4;spacingRight=4;overflow=hidden;points=[[0,0.5],[1,0.5]];portConstraint=eastwest;rotatable=0;whiteSpace=wrap;html=1;" parent="Y71OiTSrw5KZEtVsrdHp-24" vertex="1">
          <mxGeometry y="90" width="140" height="30" as="geometry" />
        </mxCell>
        <mxCell id="Y71OiTSrw5KZEtVsrdHp-28" value="Программа_Название" style="text;strokeColor=none;fillColor=none;align=left;verticalAlign=middle;spacingLeft=4;spacingRight=4;overflow=hidden;points=[[0,0.5],[1,0.5]];portConstraint=eastwest;rotatable=0;whiteSpace=wrap;html=1;" parent="Y71OiTSrw5KZEtVsrdHp-24" vertex="1">
          <mxGeometry y="120" width="140" height="30" as="geometry" />
        </mxCell>
        <mxCell id="Y71OiTSrw5KZEtVsrdHp-29" value="Программа_Описание" style="text;strokeColor=none;fillColor=none;align=left;verticalAlign=middle;spacingLeft=4;spacingRight=4;overflow=hidden;points=[[0,0.5],[1,0.5]];portConstraint=eastwest;rotatable=0;whiteSpace=wrap;html=1;" parent="Y71OiTSrw5KZEtVsrdHp-24" vertex="1">
          <mxGeometry y="150" width="140" height="30" as="geometry" />
        </mxCell>
        <mxCell id="Y71OiTSrw5KZEtVsrdHp-30" value="" style="endArrow=none;html=1;rounded=0;endFill=0;startArrow=oval;startFill=1;" parent="1" source="Y71OiTSrw5KZEtVsrdHp-9" target="Y71OiTSrw5KZEtVsrdHp-13" edge="1">
          <mxGeometry width="50" height="50" relative="1" as="geometry">
            <mxPoint x="490" y="60" as="sourcePoint" />
            <mxPoint x="580" y="60" as="targetPoint" />
          </mxGeometry>
        </mxCell>
        <mxCell id="Y71OiTSrw5KZEtVsrdHp-31" value="Учитель" style="swimlane;fontStyle=0;childLayout=stackLayout;horizontal=1;startSize=30;horizontalStack=0;resizeParent=1;resizeParentMax=0;resizeLast=0;collapsible=1;marginBottom=0;whiteSpace=wrap;html=1;" parent="1" vertex="1">
          <mxGeometry x="1095" y="55" width="140" height="210" as="geometry" />
        </mxCell>
        <mxCell id="Y71OiTSrw5KZEtVsrdHp-32" value="Код_Учитель" style="text;strokeColor=none;fillColor=none;align=left;verticalAlign=middle;spacingLeft=4;spacingRight=4;overflow=hidden;points=[[0,0.5],[1,0.5]];portConstraint=eastwest;rotatable=0;whiteSpace=wrap;html=1;" parent="Y71OiTSrw5KZEtVsrdHp-31" vertex="1">
          <mxGeometry y="30" width="140" height="30" as="geometry" />
        </mxCell>
        <mxCell id="Y71OiTSrw5KZEtVsrdHp-33" value="ФИО" style="text;strokeColor=none;fillColor=none;align=left;verticalAlign=middle;spacingLeft=4;spacingRight=4;overflow=hidden;points=[[0,0.5],[1,0.5]];portConstraint=eastwest;rotatable=0;whiteSpace=wrap;html=1;" parent="Y71OiTSrw5KZEtVsrdHp-31" vertex="1">
          <mxGeometry y="60" width="140" height="30" as="geometry" />
        </mxCell>
        <mxCell id="Y71OiTSrw5KZEtVsrdHp-34" value="Телефон" style="text;strokeColor=none;fillColor=none;align=left;verticalAlign=middle;spacingLeft=4;spacingRight=4;overflow=hidden;points=[[0,0.5],[1,0.5]];portConstraint=eastwest;rotatable=0;whiteSpace=wrap;html=1;" parent="Y71OiTSrw5KZEtVsrdHp-31" vertex="1">
          <mxGeometry y="90" width="140" height="30" as="geometry" />
        </mxCell>
        <mxCell id="Y71OiTSrw5KZEtVsrdHp-35" value="Почта" style="text;strokeColor=none;fillColor=none;align=left;verticalAlign=middle;spacingLeft=4;spacingRight=4;overflow=hidden;points=[[0,0.5],[1,0.5]];portConstraint=eastwest;rotatable=0;whiteSpace=wrap;html=1;" parent="Y71OiTSrw5KZEtVsrdHp-31" vertex="1">
          <mxGeometry y="120" width="140" height="30" as="geometry" />
        </mxCell>
        <mxCell id="Y71OiTSrw5KZEtVsrdHp-36" value="Учебный_План_Код" style="text;strokeColor=none;fillColor=none;align=left;verticalAlign=middle;spacingLeft=4;spacingRight=4;overflow=hidden;points=[[0,0.5],[1,0.5]];portConstraint=eastwest;rotatable=0;whiteSpace=wrap;html=1;" parent="Y71OiTSrw5KZEtVsrdHp-31" vertex="1">
          <mxGeometry y="150" width="140" height="30" as="geometry" />
        </mxCell>
        <mxCell id="Y71OiTSrw5KZEtVsrdHp-37" value="Предмет_Код" style="text;strokeColor=none;fillColor=none;align=left;verticalAlign=middle;spacingLeft=4;spacingRight=4;overflow=hidden;points=[[0,0.5],[1,0.5]];portConstraint=eastwest;rotatable=0;whiteSpace=wrap;html=1;" parent="Y71OiTSrw5KZEtVsrdHp-31" vertex="1">
          <mxGeometry y="180" width="140" height="30" as="geometry" />
        </mxCell>
        <mxCell id="Y71OiTSrw5KZEtVsrdHp-38" value="Урок" style="swimlane;fontStyle=0;childLayout=stackLayout;horizontal=1;startSize=30;horizontalStack=0;resizeParent=1;resizeParentMax=0;resizeLast=0;collapsible=1;marginBottom=0;whiteSpace=wrap;html=1;" parent="1" vertex="1">
          <mxGeometry x="1080" y="305" width="170" height="330" as="geometry" />
        </mxCell>
        <mxCell id="Y71OiTSrw5KZEtVsrdHp-39" value="Код_Урок" style="text;strokeColor=none;fillColor=none;align=left;verticalAlign=middle;spacingLeft=4;spacingRight=4;overflow=hidden;points=[[0,0.5],[1,0.5]];portConstraint=eastwest;rotatable=0;whiteSpace=wrap;html=1;" parent="Y71OiTSrw5KZEtVsrdHp-38" vertex="1">
          <mxGeometry y="30" width="170" height="30" as="geometry" />
        </mxCell>
        <mxCell id="Y71OiTSrw5KZEtVsrdHp-40" value="Номер_Урока" style="text;strokeColor=none;fillColor=none;align=left;verticalAlign=middle;spacingLeft=4;spacingRight=4;overflow=hidden;points=[[0,0.5],[1,0.5]];portConstraint=eastwest;rotatable=0;whiteSpace=wrap;html=1;" parent="Y71OiTSrw5KZEtVsrdHp-38" vertex="1">
          <mxGeometry y="60" width="170" height="30" as="geometry" />
        </mxCell>
        <mxCell id="Y71OiTSrw5KZEtVsrdHp-41" value="Время_Проведения" style="text;strokeColor=none;fillColor=none;align=left;verticalAlign=middle;spacingLeft=4;spacingRight=4;overflow=hidden;points=[[0,0.5],[1,0.5]];portConstraint=eastwest;rotatable=0;whiteSpace=wrap;html=1;" parent="Y71OiTSrw5KZEtVsrdHp-38" vertex="1">
          <mxGeometry y="90" width="170" height="30" as="geometry" />
        </mxCell>
        <mxCell id="Y71OiTSrw5KZEtVsrdHp-42" value="ДЗ_Дата_Отправки" style="text;strokeColor=none;fillColor=none;align=left;verticalAlign=middle;spacingLeft=4;spacingRight=4;overflow=hidden;points=[[0,0.5],[1,0.5]];portConstraint=eastwest;rotatable=0;whiteSpace=wrap;html=1;" parent="Y71OiTSrw5KZEtVsrdHp-38" vertex="1">
          <mxGeometry y="120" width="170" height="30" as="geometry" />
        </mxCell>
        <mxCell id="Y71OiTSrw5KZEtVsrdHp-43" value="ДЗ_Срок_Выполнения" style="text;strokeColor=none;fillColor=none;align=left;verticalAlign=middle;spacingLeft=4;spacingRight=4;overflow=hidden;points=[[0,0.5],[1,0.5]];portConstraint=eastwest;rotatable=0;whiteSpace=wrap;html=1;" parent="Y71OiTSrw5KZEtVsrdHp-38" vertex="1">
          <mxGeometry y="150" width="170" height="30" as="geometry" />
        </mxCell>
        <mxCell id="Y71OiTSrw5KZEtVsrdHp-44" value="ДЗ_Текст_Задания" style="text;strokeColor=none;fillColor=none;align=left;verticalAlign=middle;spacingLeft=4;spacingRight=4;overflow=hidden;points=[[0,0.5],[1,0.5]];portConstraint=eastwest;rotatable=0;whiteSpace=wrap;html=1;" parent="Y71OiTSrw5KZEtVsrdHp-38" vertex="1">
          <mxGeometry y="180" width="170" height="30" as="geometry" />
        </mxCell>
        <mxCell id="Y71OiTSrw5KZEtVsrdHp-45" value="ДЗ_Источники_Литературы" style="text;strokeColor=none;fillColor=none;align=left;verticalAlign=middle;spacingLeft=4;spacingRight=4;overflow=hidden;points=[[0,0.5],[1,0.5]];portConstraint=eastwest;rotatable=0;whiteSpace=wrap;html=1;" parent="Y71OiTSrw5KZEtVsrdHp-38" vertex="1">
          <mxGeometry y="210" width="170" height="30" as="geometry" />
        </mxCell>
        <mxCell id="Y71OiTSrw5KZEtVsrdHp-46" value="Учитель_Код" style="text;strokeColor=none;fillColor=none;align=left;verticalAlign=middle;spacingLeft=4;spacingRight=4;overflow=hidden;points=[[0,0.5],[1,0.5]];portConstraint=eastwest;rotatable=0;whiteSpace=wrap;html=1;" parent="Y71OiTSrw5KZEtVsrdHp-38" vertex="1">
          <mxGeometry y="240" width="170" height="30" as="geometry" />
        </mxCell>
        <mxCell id="Y71OiTSrw5KZEtVsrdHp-47" value="Предмет_Код" style="text;strokeColor=none;fillColor=none;align=left;verticalAlign=middle;spacingLeft=4;spacingRight=4;overflow=hidden;points=[[0,0.5],[1,0.5]];portConstraint=eastwest;rotatable=0;whiteSpace=wrap;html=1;" parent="Y71OiTSrw5KZEtVsrdHp-38" vertex="1">
          <mxGeometry y="270" width="170" height="30" as="geometry" />
        </mxCell>
        <mxCell id="Y71OiTSrw5KZEtVsrdHp-48" value="Расписание_На_День_Код" style="text;strokeColor=none;fillColor=none;align=left;verticalAlign=middle;spacingLeft=4;spacingRight=4;overflow=hidden;points=[[0,0.5],[1,0.5]];portConstraint=eastwest;rotatable=0;whiteSpace=wrap;html=1;" parent="Y71OiTSrw5KZEtVsrdHp-38" vertex="1">
          <mxGeometry y="300" width="170" height="30" as="geometry" />
        </mxCell>
        <mxCell id="Y71OiTSrw5KZEtVsrdHp-49" value="" style="endArrow=none;html=1;rounded=0;endFill=0;startArrow=oval;startFill=1;" parent="1" source="Y71OiTSrw5KZEtVsrdHp-38" target="Y71OiTSrw5KZEtVsrdHp-31" edge="1">
          <mxGeometry width="50" height="50" relative="1" as="geometry">
            <mxPoint x="1135" y="490" as="sourcePoint" />
            <mxPoint x="1222" y="490" as="targetPoint" />
          </mxGeometry>
        </mxCell>
        <mxCell id="Y71OiTSrw5KZEtVsrdHp-50" value="" style="endArrow=none;html=1;rounded=0;endFill=0;startArrow=oval;startFill=1;exitX=-0.004;exitY=0.158;exitDx=0;exitDy=0;exitPerimeter=0;" parent="1" source="Y71OiTSrw5KZEtVsrdHp-33" edge="1">
          <mxGeometry width="50" height="50" relative="1" as="geometry">
            <mxPoint x="1020" y="120" as="sourcePoint" />
            <mxPoint x="740" y="120" as="targetPoint" />
          </mxGeometry>
        </mxCell>
        <mxCell id="Y71OiTSrw5KZEtVsrdHp-51" value="" style="endArrow=none;html=1;rounded=0;endFill=0;startArrow=oval;startFill=1;edgeStyle=orthogonalEdgeStyle;" parent="1" source="Y71OiTSrw5KZEtVsrdHp-18" target="Y71OiTSrw5KZEtVsrdHp-38" edge="1">
          <mxGeometry width="50" height="50" relative="1" as="geometry">
            <mxPoint x="670" y="465" as="sourcePoint" />
            <mxPoint x="1090" y="450" as="targetPoint" />
            <Array as="points">
              <mxPoint x="670" y="690" />
              <mxPoint x="1160" y="690" />
            </Array>
          </mxGeometry>
        </mxCell>
        <mxCell id="Y71OiTSrw5KZEtVsrdHp-52" value="Учебный_План_Предмет" style="swimlane;fontStyle=0;childLayout=stackLayout;horizontal=1;startSize=30;horizontalStack=0;resizeParent=1;resizeParentMax=0;resizeLast=0;collapsible=1;marginBottom=0;whiteSpace=wrap;html=1;" parent="1" vertex="1">
          <mxGeometry x="802" y="160" width="190" height="120" as="geometry" />
        </mxCell>
        <mxCell id="Y71OiTSrw5KZEtVsrdHp-53" value="Код_&lt;span style=&quot;text-align: center;&quot;&gt;Учебный_План_Предмет&lt;/span&gt;" style="text;strokeColor=none;fillColor=none;align=left;verticalAlign=middle;spacingLeft=4;spacingRight=4;overflow=hidden;points=[[0,0.5],[1,0.5]];portConstraint=eastwest;rotatable=0;whiteSpace=wrap;html=1;" parent="Y71OiTSrw5KZEtVsrdHp-52" vertex="1">
          <mxGeometry y="30" width="190" height="30" as="geometry" />
        </mxCell>
        <mxCell id="Y71OiTSrw5KZEtVsrdHp-54" value="&lt;span style=&quot;text-align: center;&quot;&gt;Код_Учебный_План&lt;/span&gt;" style="text;strokeColor=none;fillColor=none;align=left;verticalAlign=middle;spacingLeft=4;spacingRight=4;overflow=hidden;points=[[0,0.5],[1,0.5]];portConstraint=eastwest;rotatable=0;whiteSpace=wrap;html=1;" parent="Y71OiTSrw5KZEtVsrdHp-52" vertex="1">
          <mxGeometry y="60" width="190" height="30" as="geometry" />
        </mxCell>
        <mxCell id="Y71OiTSrw5KZEtVsrdHp-55" value="Код_Предмет" style="text;strokeColor=none;fillColor=none;align=left;verticalAlign=middle;spacingLeft=4;spacingRight=4;overflow=hidden;points=[[0,0.5],[1,0.5]];portConstraint=eastwest;rotatable=0;whiteSpace=wrap;html=1;" parent="Y71OiTSrw5KZEtVsrdHp-52" vertex="1">
          <mxGeometry y="90" width="190" height="30" as="geometry" />
        </mxCell>
        <mxCell id="Y71OiTSrw5KZEtVsrdHp-56" value="" style="endArrow=none;html=1;rounded=0;endFill=0;startArrow=oval;startFill=1;edgeStyle=orthogonalEdgeStyle;" parent="1" source="Y71OiTSrw5KZEtVsrdHp-52" target="Y71OiTSrw5KZEtVsrdHp-13" edge="1">
          <mxGeometry width="50" height="50" relative="1" as="geometry">
            <mxPoint x="670" y="250" as="sourcePoint" />
            <mxPoint x="760" y="250" as="targetPoint" />
            <Array as="points">
              <mxPoint x="670" y="240" />
            </Array>
          </mxGeometry>
        </mxCell>
        <mxCell id="Y71OiTSrw5KZEtVsrdHp-57" value="" style="endArrow=none;html=1;rounded=0;endFill=0;startArrow=oval;startFill=1;edgeStyle=orthogonalEdgeStyle;" parent="1" source="Y71OiTSrw5KZEtVsrdHp-52" target="Y71OiTSrw5KZEtVsrdHp-24" edge="1">
          <mxGeometry width="50" height="50" relative="1" as="geometry">
            <mxPoint x="812" y="230" as="sourcePoint" />
            <mxPoint x="750" y="170" as="targetPoint" />
          </mxGeometry>
        </mxCell>
        <mxCell id="Y71OiTSrw5KZEtVsrdHp-58" value="" style="endArrow=none;html=1;rounded=0;endFill=0;startArrow=oval;startFill=1;edgeStyle=orthogonalEdgeStyle;" parent="1" target="Y71OiTSrw5KZEtVsrdHp-1" edge="1">
          <mxGeometry width="50" height="50" relative="1" as="geometry">
            <mxPoint x="600" y="429.47" as="sourcePoint" />
            <mxPoint x="510" y="430.13" as="targetPoint" />
            <Array as="points">
              <mxPoint x="550" y="430" />
              <mxPoint x="550" y="430" />
            </Array>
          </mxGeometry>
        </mxCell>
        <mxCell id="Y71OiTSrw5KZEtVsrdHp-59" value="Родитель" style="swimlane;fontStyle=0;childLayout=stackLayout;horizontal=1;startSize=30;horizontalStack=0;resizeParent=1;resizeParentMax=0;resizeLast=0;collapsible=1;marginBottom=0;whiteSpace=wrap;html=1;" parent="1" vertex="1">
          <mxGeometry x="390" y="570" width="140" height="150" as="geometry" />
        </mxCell>
        <mxCell id="Y71OiTSrw5KZEtVsrdHp-60" value="Код_Родитель" style="text;strokeColor=none;fillColor=none;align=left;verticalAlign=middle;spacingLeft=4;spacingRight=4;overflow=hidden;points=[[0,0.5],[1,0.5]];portConstraint=eastwest;rotatable=0;whiteSpace=wrap;html=1;" parent="Y71OiTSrw5KZEtVsrdHp-59" vertex="1">
          <mxGeometry y="30" width="140" height="30" as="geometry" />
        </mxCell>
        <mxCell id="Y71OiTSrw5KZEtVsrdHp-61" value="ФИО" style="text;strokeColor=none;fillColor=none;align=left;verticalAlign=middle;spacingLeft=4;spacingRight=4;overflow=hidden;points=[[0,0.5],[1,0.5]];portConstraint=eastwest;rotatable=0;whiteSpace=wrap;html=1;" parent="Y71OiTSrw5KZEtVsrdHp-59" vertex="1">
          <mxGeometry y="60" width="140" height="30" as="geometry" />
        </mxCell>
        <mxCell id="Y71OiTSrw5KZEtVsrdHp-62" value="Телефон" style="text;strokeColor=none;fillColor=none;align=left;verticalAlign=middle;spacingLeft=4;spacingRight=4;overflow=hidden;points=[[0,0.5],[1,0.5]];portConstraint=eastwest;rotatable=0;whiteSpace=wrap;html=1;" parent="Y71OiTSrw5KZEtVsrdHp-59" vertex="1">
          <mxGeometry y="90" width="140" height="30" as="geometry" />
        </mxCell>
        <mxCell id="Y71OiTSrw5KZEtVsrdHp-63" value="Почта" style="text;strokeColor=none;fillColor=none;align=left;verticalAlign=middle;spacingLeft=4;spacingRight=4;overflow=hidden;points=[[0,0.5],[1,0.5]];portConstraint=eastwest;rotatable=0;whiteSpace=wrap;html=1;" parent="Y71OiTSrw5KZEtVsrdHp-59" vertex="1">
          <mxGeometry y="120" width="140" height="30" as="geometry" />
        </mxCell>
        <mxCell id="Y71OiTSrw5KZEtVsrdHp-64" value="" style="endArrow=none;html=1;rounded=0;endFill=0;startArrow=oval;startFill=1;" parent="1" source="Y71OiTSrw5KZEtVsrdHp-1" target="Y71OiTSrw5KZEtVsrdHp-59" edge="1">
          <mxGeometry width="50" height="50" relative="1" as="geometry">
            <mxPoint x="640" y="540" as="sourcePoint" />
            <mxPoint x="550" y="541" as="targetPoint" />
          </mxGeometry>
        </mxCell>
        <mxCell id="Y71OiTSrw5KZEtVsrdHp-65" value="Мероприятия" style="swimlane;fontStyle=0;childLayout=stackLayout;horizontal=1;startSize=30;horizontalStack=0;resizeParent=1;resizeParentMax=0;resizeLast=0;collapsible=1;marginBottom=0;whiteSpace=wrap;html=1;" parent="1" vertex="1">
          <mxGeometry x="1340" y="170" width="150" height="150" as="geometry" />
        </mxCell>
        <mxCell id="Y71OiTSrw5KZEtVsrdHp-66" value="Код_Мероприятия" style="text;strokeColor=none;fillColor=none;align=left;verticalAlign=middle;spacingLeft=4;spacingRight=4;overflow=hidden;points=[[0,0.5],[1,0.5]];portConstraint=eastwest;rotatable=0;whiteSpace=wrap;html=1;" parent="Y71OiTSrw5KZEtVsrdHp-65" vertex="1">
          <mxGeometry y="30" width="150" height="30" as="geometry" />
        </mxCell>
        <mxCell id="Y71OiTSrw5KZEtVsrdHp-67" value="Название" style="text;strokeColor=none;fillColor=none;align=left;verticalAlign=middle;spacingLeft=4;spacingRight=4;overflow=hidden;points=[[0,0.5],[1,0.5]];portConstraint=eastwest;rotatable=0;whiteSpace=wrap;html=1;" parent="Y71OiTSrw5KZEtVsrdHp-65" vertex="1">
          <mxGeometry y="60" width="150" height="30" as="geometry" />
        </mxCell>
        <mxCell id="Y71OiTSrw5KZEtVsrdHp-68" value="Дата_Время_Начало" style="text;strokeColor=none;fillColor=none;align=left;verticalAlign=middle;spacingLeft=4;spacingRight=4;overflow=hidden;points=[[0,0.5],[1,0.5]];portConstraint=eastwest;rotatable=0;whiteSpace=wrap;html=1;" parent="Y71OiTSrw5KZEtVsrdHp-65" vertex="1">
          <mxGeometry y="90" width="150" height="30" as="geometry" />
        </mxCell>
        <mxCell id="Y71OiTSrw5KZEtVsrdHp-69" value="Дата_Время_Окончание" style="text;strokeColor=none;fillColor=none;align=left;verticalAlign=middle;spacingLeft=4;spacingRight=4;overflow=hidden;points=[[0,0.5],[1,0.5]];portConstraint=eastwest;rotatable=0;whiteSpace=wrap;html=1;" parent="Y71OiTSrw5KZEtVsrdHp-65" vertex="1">
          <mxGeometry y="120" width="150" height="30" as="geometry" />
        </mxCell>
        <mxCell id="Y71OiTSrw5KZEtVsrdHp-70" value="" style="endArrow=none;html=1;rounded=0;endFill=0;startArrow=oval;startFill=1;" parent="1" source="Y71OiTSrw5KZEtVsrdHp-38" target="Y71OiTSrw5KZEtVsrdHp-71" edge="1">
          <mxGeometry width="50" height="50" relative="1" as="geometry">
            <mxPoint x="1525" y="260" as="sourcePoint" />
            <mxPoint x="1525" y="220" as="targetPoint" />
          </mxGeometry>
        </mxCell>
        <mxCell id="Y71OiTSrw5KZEtVsrdHp-71" value="Расписание_На_День" style="swimlane;fontStyle=0;childLayout=stackLayout;horizontal=1;startSize=30;horizontalStack=0;resizeParent=1;resizeParentMax=0;resizeLast=0;collapsible=1;marginBottom=0;whiteSpace=wrap;html=1;" parent="1" vertex="1">
          <mxGeometry x="1322.5" y="410" width="185" height="120" as="geometry" />
        </mxCell>
        <mxCell id="Y71OiTSrw5KZEtVsrdHp-72" value="Код_Расписание_На_День" style="text;strokeColor=none;fillColor=none;align=left;verticalAlign=middle;spacingLeft=4;spacingRight=4;overflow=hidden;points=[[0,0.5],[1,0.5]];portConstraint=eastwest;rotatable=0;whiteSpace=wrap;html=1;" parent="Y71OiTSrw5KZEtVsrdHp-71" vertex="1">
          <mxGeometry y="30" width="185" height="30" as="geometry" />
        </mxCell>
        <mxCell id="Y71OiTSrw5KZEtVsrdHp-73" value="Дата" style="text;strokeColor=none;fillColor=none;align=left;verticalAlign=middle;spacingLeft=4;spacingRight=4;overflow=hidden;points=[[0,0.5],[1,0.5]];portConstraint=eastwest;rotatable=0;whiteSpace=wrap;html=1;" parent="Y71OiTSrw5KZEtVsrdHp-71" vertex="1">
          <mxGeometry y="60" width="185" height="30" as="geometry" />
        </mxCell>
        <mxCell id="Y71OiTSrw5KZEtVsrdHp-74" value="Мероприятия_Код" style="text;strokeColor=none;fillColor=none;align=left;verticalAlign=middle;spacingLeft=4;spacingRight=4;overflow=hidden;points=[[0,0.5],[1,0.5]];portConstraint=eastwest;rotatable=0;whiteSpace=wrap;html=1;" parent="Y71OiTSrw5KZEtVsrdHp-71" vertex="1">
          <mxGeometry y="90" width="185" height="30" as="geometry" />
        </mxCell>
        <mxCell id="Y71OiTSrw5KZEtVsrdHp-75" value="" style="endArrow=none;html=1;rounded=0;endFill=0;startArrow=oval;startFill=1;" parent="1" source="Y71OiTSrw5KZEtVsrdHp-71" target="Y71OiTSrw5KZEtVsrdHp-65" edge="1">
          <mxGeometry width="50" height="50" relative="1" as="geometry">
            <mxPoint x="1550" y="370" as="sourcePoint" />
            <mxPoint x="1585" y="305" as="targetPoint" />
          </mxGeometry>
        </mxCell>
        <mxCell id="Y71OiTSrw5KZEtVsrdHp-76" value="" style="endArrow=none;html=1;rounded=0;endFill=0;startArrow=oval;startFill=1;edgeStyle=orthogonalEdgeStyle;" parent="1" source="Y71OiTSrw5KZEtVsrdHp-38" target="Y71OiTSrw5KZEtVsrdHp-24" edge="1">
          <mxGeometry width="50" height="50" relative="1" as="geometry">
            <mxPoint x="907" y="290" as="sourcePoint" />
            <mxPoint x="907" y="350" as="targetPoint" />
            <Array as="points">
              <mxPoint x="1030" y="430" />
              <mxPoint x="1030" y="430" />
            </Array>
          </mxGeometry>
        </mxCell>
      </root>
    </mxGraphModel>
  </diagram>
</mxfile>
